<?xml version="1.0" encoding="UTF-8"?>
<svg version="1.1" xmlns="http://www.w3.org/2000/svg" width="32" height="32">
<path d="M0 0 C10.56 0 21.12 0 32 0 C32 10.56 32 21.12 32 32 C21.44 32 10.88 32 0 32 C0 21.44 0 10.88 0 0 Z " fill="#150029" transform="translate(0,0)"/>
<path d="M0 0 C4.75 0.75 4.75 0.75 7 3 C8.06433568 7.70081591 8.22532845 10.68024478 6 15 C4.68 14.67 3.36 14.34 2 14 C2 12.35 2 10.7 2 9 C0.35 8.67 -1.3 8.34 -3 8 C-2.67 6.35 -2.34 4.7 -2 3 C-1.34 3 -0.68 3 0 3 C0 2.01 0 1.02 0 0 Z " fill="#561F89" transform="translate(16,6)"/>
<path d="M0 0 C-0.33 1.65 -0.66 3.3 -1 5 C-6.28 5 -11.56 5 -17 5 C-17.33 3.68 -17.66 2.36 -18 1 C-11.96445452 0.30739642 -6.07593562 -0.11251733 0 0 Z " fill="#271639" transform="translate(25,22)"/>
<path d="M0 0 C4.75 0.75 4.75 0.75 7 3 C7.125 5.625 7.125 5.625 7 8 C6.67 7.34 6.34 6.68 6 6 C3.36 6.33 0.72 6.66 -2 7 C-2 5.68 -2 4.36 -2 3 C-1.34 3 -0.68 3 0 3 C0 2.01 0 1.02 0 0 Z " fill="#532783" transform="translate(16,6)"/>
<path d="M0 0 C0 0.99 0 1.98 0 3 C-6.11485027 3.09706112 -11.93303301 2.77040851 -18 2 C-18 1.67 -18 1.34 -18 1 C-11.96445452 0.30739642 -6.07593562 -0.11251733 0 0 Z " fill="#41156B" transform="translate(25,22)"/>
<path d="M0 0 C0.33 0.66 0.66 1.32 1 2 C3.64 1.67 6.28 1.34 9 1 C9 1.66 9 2.32 9 3 C8.01 3 7.02 3 6 3 C6 4.98 6 6.96 6 9 C5.67 9 5.34 9 5 9 C5 7.35 5 5.7 5 4 C3.35 3.67 1.7 3.34 0 3 C0 2.01 0 1.02 0 0 Z " fill="#37165C" transform="translate(13,11)"/>
<path d="M0 0 C2.475 0.495 2.475 0.495 5 1 C5.33 2.32 5.66 3.64 6 5 C3.83125748 4.49396008 2.00032373 4.00016187 0 3 C0 2.01 0 1.02 0 0 Z " fill="#6828A4" transform="translate(16,6)"/>
<path d="M0 0 C2.97 0 5.94 0 9 0 C7.68 0.33 6.36 0.66 5 1 C5 1.66 5 2.32 5 3 C3.68 3 2.36 3 1 3 C0.67 2.01 0.34 1.02 0 0 Z " fill="#200936" transform="translate(7,24)"/>
</svg>
